*******************************************************************************
                    Lost Lake (2012) HDRip - RadioResearch
*******************************************************************************

-------------------------------------------------------------------------------
                              General Information
-------------------------------------------------------------------------------
Type.................: Movie



Video Format.........: AVI
Video Bitrate........: 1508
Resolution...........: 640 x 266
Color................: 8 bit
FPS..................: 25.000
Source...............: HD WEB 2.40:1
Original Format......: NTSC
Genre................: Horror / Thriller
IMDb Rating..........: 4.0
Movie Information....: http://www.imdb.com/title/tt1890455/

-------------------------------------------------------------------------------
                               Post Information
-------------------------------------------------------------------------------
Posted by............: RadioResearch
Posted on............: 5/25/2013

-------------------------------------------------------------------------------
                                 Release Notes
-------------------------------------------------------------------------------
A young couple travels to a deserted town to try and find their mysterious 
uncle, only to discover that ghosts are real and very dangerous. 

This actually looks pretty good!

Enjoy!
RadioResearch

General
Complete name                            : G:Lost Lake (2012) HDRip - 
RadioResearchLost Lake (HD){RadioResearch}.avi
Format                                   : AVI
Format/Info                              : Audio Video Interleave
File size                                : 909 MiB
Duration                                 : 1h 24mn
Overall bit rate                         : 1 508 Kbps

Video
ID                                       : 0
Format                                   : mp43
Codec ID                                 : mp43
Duration                                 : 1h 24mn
Bit rate                                 : 1 304 Kbps
Width                                    : 640 pixels
Height                                   : 266 pixels
Display aspect ratio                     : 2.40:1
Frame rate                               : 25.000 fps
Bits/(Pixel*Frame)                       : 0.306
Stream size                              : 785 MiB (86%)

Audio
ID                                       : 1
Format                                   : MPEG Audio
Format version                           : Version 1
Format profile                           : Layer 3
Mode                                     : Joint stereo
Mode extension                           : MS Stereo
Codec ID                                 : 55
Codec ID/Hint                            : MP3
Duration                                 : 1h 24mn
Bit rate mode                            : Constant
Bit rate                                 : 192 Kbps
Channel(s)                               : 2 channels
Sampling rate                            : 48.0 KHz
Compression mode                         : Lossy
Stream size                              : 116 MiB (13%)
Alignment                                : Aligned on interleaves
Interleave, duration                     : 24 ms (0.60 video frame)
Interleave, preload duration             : 432 ms
Writing library                          : LAME3.98.2

AVI FILE MD5 HASH a4b36a980a1d1cf259da56c2e929ffdb



-------------------------------------------------------------------------------
Generated with Cool NFO Creator - http://fly.to/coolbeans
-------------------------------------------------------------------------------
